<?xml version="1.0" encoding="utf-8" ?>
<svg xmlns="http://www.w3.org/2000/svg" xmlns:xlink="http://www.w3.org/1999/xlink" width="377" height="346">
	<path fill="#00655A" transform="scale(0.490885 0.450617)" d="M626.472 644.297C628.042 642.788 630.446 641.648 632.291 640.476L641.491 634.089L682.422 601.479L682.603 596.783L682.506 631.983L626.472 644.297Z"/>
	<path fill="#DCC39E" transform="scale(0.490885 0.450617)" d="M563.549 351.282C563.906 347.708 564.854 344.213 565.396 340.667C565.906 337.334 565.571 330.85 567.435 328.166L569.674 328.394C571.47 327.971 573.656 328.455 575.488 328.655L590.526 330.83C600.163 332.17 681.093 344.875 683.104 343.863C682.907 346.839 682.51 349.796 681.699 352.671L656.145 359.625L655.591 359.764C653.344 360.275 650.783 359.821 648.507 359.629L634.434 358.198L588.54 353.607C580.387 352.777 571.726 351.263 563.549 351.282Z"/>
	<path fill="#45C0B1" transform="scale(0.490885 0.450617)" d="M85.3088 565.926L85.6756 415.381C85.7727 413.564 86.8209 412.081 87.8419 410.644C90.7495 406.553 94.4696 402.582 98.1761 399.198C98.585 398.824 99.462 397.9 99.9569 397.729C101.147 397.319 103.625 397.883 104.945 398.002L120.041 399.465L170.211 404.279L190.654 406.11C191.633 407.894 190.988 417.914 190.988 420.439L191.026 452.563C191.138 456.95 191.971 461.201 191.956 465.608C190.87 466.747 189.736 467.858 188.789 469.118L152.587 502.947L129.255 525.146L120.919 532.562L103.834 548.593C97.8759 554.418 91.9798 560.925 85.3088 565.926Z"/>
	<path fill="#FDCE87" transform="scale(0.490885 0.450617)" d="M570.673 107.572L647.156 131.405L663.789 136.499L677.03 140.533C678.922 141.202 680.935 141.808 682.642 142.876C683.383 144.811 683.147 147.182 683.164 149.237L683.205 163.392L683.199 206.768L683.104 343.863C681.093 344.875 600.163 332.17 590.526 330.83L575.488 328.655C573.656 328.455 571.47 327.971 569.674 328.394C569.346 326.373 569.92 324.331 569.972 322.284L569.993 306.675L570.092 243.51L586.387 248.166L586.923 231.263L570.029 225.996L570.001 194.295L570.005 133.33L570.033 114.22C570.037 112.849 569.645 109.62 570.05 108.421C570.163 108.089 570.465 107.855 570.673 107.572Z"/>
	<path fill="#45C0B1" transform="scale(0.490885 0.450617)" d="M578.068 403.782C585.593 403.584 593.211 402.511 600.717 401.835L656.428 396.591C659.263 396.362 662.109 395.879 664.946 395.786C665.594 395.764 666.813 395.606 667.418 395.76C668.529 396.043 670.454 397.93 671.294 398.731C675.559 402.796 682.625 409.61 682.708 415.895L682.603 596.783L682.422 601.479L641.491 634.089L632.291 640.476C630.446 641.648 628.042 642.788 626.472 644.297L578.19 656.439C577.388 651.686 577.837 646.915 577.791 642.156L577.512 615.835L577.175 544.552L594.218 544.092L593.638 525.464L578.237 525.387L578.068 403.782Z"/>
	<path fill="#CE8A47" transform="scale(0.490885 0.450617)" d="M368.356 59.9916C371.32 58.6184 375.658 57.1855 378.943 57.4393L461.318 78.1005L477.502 82.0528C478.742 82.345 481.389 82.5861 482.382 83.243L539.013 98.652L558.928 104.108C562.711 105.134 567.124 105.972 570.673 107.572C570.465 107.855 570.163 108.089 570.05 108.421C569.645 109.62 570.037 112.849 570.033 114.22L570.005 133.33L570.001 194.295L570.029 225.996L586.923 231.263L586.387 248.166L570.092 243.51L569.993 306.675L569.972 322.284C569.92 324.331 569.346 326.373 569.674 328.394L567.435 328.166C565.571 330.85 565.906 337.334 565.396 340.667C564.854 344.213 563.906 347.708 563.549 351.282L481.741 345.09L379.289 340.191L368.446 340.475L368.582 297.564L368.557 283.799L368.567 268.807L368.586 193.071L368.686 181.611L368.356 59.9916ZM482.382 83.243C481.603 87.409 482.274 92.6562 482.153 96.983L481.988 160.635L481.976 283.685L481.741 345.09L563.549 351.282C563.906 347.708 564.854 344.213 565.396 340.667C565.906 337.334 565.571 330.85 567.435 328.166L569.674 328.394C569.346 326.373 569.92 324.331 569.972 322.284L569.993 306.675L570.092 243.51L586.387 248.166L586.923 231.263L570.029 225.996L570.001 194.295L570.005 133.33L570.033 114.22C570.037 112.849 569.645 109.62 570.05 108.421C570.163 108.089 570.465 107.855 570.673 107.572C567.124 105.972 562.711 105.134 558.928 104.108L539.013 98.652L482.382 83.243ZM371.033 169.713L370.575 169.507C369.947 169.208 370.174 169.363 369.718 168.876L369.766 169.216C369.891 170.289 369.63 171.262 369.877 172.336C370.202 173.745 369.996 175.396 369.95 176.842C369.646 176.505 369.587 176.257 369.445 175.833C369.14 181.302 369.607 187.771 368.586 193.071L368.567 268.807L368.557 283.799L368.88 286.272C368.816 288.058 368.951 289.735 369.154 291.502L369.627 291.557L370.018 290.94L370.954 291.01L371.637 292.119L371.981 292.664C373.219 294.751 373.161 297.858 374.098 300.137C374.132 297.841 373.935 295.409 374.772 293.234L374.887 293.182L375.825 293.85C375.912 293.03 375.947 292.315 376.291 291.556C376.324 292.377 376.329 293.061 376.572 293.856L378.253 286.276L378.676 279.721C378.231 277.641 378.596 274.6 378.571 272.415L378.715 199.657L378.59 178.466C377.224 172.629 379.278 165.751 377.747 159.917L377.408 161.227C376.689 163.112 377.378 165.015 376.759 166.849C376.277 166.37 376.336 164.208 376.27 163.467C374.718 167.463 374.206 172.204 373.242 176.396C372.83 178.187 372.478 180.357 371.328 181.822C371.092 181.133 370.976 179.533 371.141 178.829L371.422 178.174C370.593 176.193 371.122 172.038 371.033 169.713ZM368.356 59.9916L368.686 181.611L368.586 193.071C369.607 187.771 369.14 181.302 369.445 175.833C369.587 176.257 369.646 176.505 369.95 176.842C369.996 175.396 370.202 173.745 369.877 172.336C369.63 171.262 369.891 170.289 369.766 169.216L369.718 168.876C370.174 169.363 369.947 169.208 370.575 169.507L371.033 169.713C371.122 172.038 370.593 176.193 371.422 178.174L371.141 178.829C370.976 179.533 371.092 181.133 371.328 181.822C372.478 180.357 372.83 178.187 373.242 176.396C374.206 172.204 374.718 167.463 376.27 163.467C376.336 164.208 376.277 166.37 376.759 166.849C377.378 165.015 376.689 163.112 377.408 161.227L377.747 159.917C379.278 165.751 377.224 172.629 378.59 178.466L378.715 199.657C379.164 196.37 378.832 192.574 378.845 189.235L378.921 166.534L378.753 93.2272C378.744 81.3778 378.205 69.2584 378.943 57.4393C375.658 57.1855 371.32 58.6184 368.356 59.9916ZM378.676 279.721L378.253 286.276L376.572 293.856C376.329 293.061 376.324 292.377 376.291 291.556C375.947 292.315 375.912 293.03 375.825 293.85L374.887 293.182L374.772 293.234C373.935 295.409 374.132 297.841 374.098 300.137C373.161 297.858 373.219 294.751 371.981 292.664L371.637 292.119L370.954 291.01L370.018 290.94L369.627 291.557L369.154 291.502C368.951 289.735 368.816 288.058 368.88 286.272L368.557 283.799L368.582 297.564L368.446 340.475L379.289 340.191L378.676 279.721Z"/>
	<path fill="#DCC39E" fill-opacity="0.97254902" transform="scale(0.490885 0.450617)" d="M378.676 279.721L379.289 340.191L368.446 340.475L368.582 297.564L368.557 283.799L368.88 286.272C368.816 288.058 368.951 289.735 369.154 291.502L369.627 291.557L370.018 290.94L370.954 291.01L371.637 292.119L371.981 292.664C373.219 294.751 373.161 297.858 374.098 300.137C374.132 297.841 373.935 295.409 374.772 293.234L374.887 293.182L375.825 293.85C375.912 293.03 375.947 292.315 376.291 291.556C376.324 292.377 376.329 293.061 376.572 293.856L378.253 286.276L378.676 279.721ZM368.557 283.799L368.582 297.564C368.745 299.922 368.589 303.49 369.865 305.532L371.635 308.41L372.453 308.059C372.273 307.176 371.927 306.349 371.609 305.508C372.208 305.103 372.077 304.836 372.213 304.155C371.679 303.719 371.538 303.586 371.218 302.945L371.703 303.163L371.969 302.2C372.864 302.32 373.079 303.071 373.789 303.284C374.118 303.382 375.062 303.191 375.448 303.163L376.031 303.746L376.092 310.089C377.648 304.306 377.356 298.874 377.773 292.982L378.253 286.276L376.572 293.856C376.329 293.061 376.324 292.377 376.291 291.556C375.947 292.315 375.912 293.03 375.825 293.85L374.887 293.182L374.772 293.234C373.935 295.409 374.132 297.841 374.098 300.137C373.161 297.858 373.219 294.751 371.981 292.664L371.637 292.119L370.954 291.01L370.018 290.94L369.627 291.557L369.154 291.502C368.951 289.735 368.816 288.058 368.88 286.272L368.557 283.799Z"/>
	<path fill="#D9C29D" fill-opacity="0.67058825" transform="scale(0.490885 0.450617)" d="M368.557 283.799L368.88 286.272C368.816 288.058 368.951 289.735 369.154 291.502L369.627 291.557L370.018 290.94L370.954 291.01L371.637 292.119L371.981 292.664C373.219 294.751 373.161 297.858 374.098 300.137C374.132 297.841 373.935 295.409 374.772 293.234L374.887 293.182L375.825 293.85C375.912 293.03 375.947 292.315 376.291 291.556C376.324 292.377 376.329 293.061 376.572 293.856L378.253 286.276L377.773 292.982C377.356 298.874 377.648 304.306 376.092 310.089L376.031 303.746L375.448 303.163C375.062 303.191 374.118 303.382 373.789 303.284C373.079 303.071 372.864 302.32 371.969 302.2L371.703 303.163L371.218 302.945C371.538 303.586 371.679 303.719 372.213 304.155C372.077 304.836 372.208 305.103 371.609 305.508C371.927 306.349 372.273 307.176 372.453 308.059L371.635 308.41L369.865 305.532C368.589 303.49 368.745 299.922 368.582 297.564L368.557 283.799ZM374.887 293.182C374.746 293.966 374.644 294.422 374.862 295.212L375.452 297.175C375.682 298.19 376.01 298.877 376.5 299.797L376.927 299.797L377.361 293.443L377.773 292.982L378.253 286.276L376.572 293.856C376.329 293.061 376.324 292.377 376.291 291.556C375.947 292.315 375.912 293.03 375.825 293.85L374.887 293.182Z"/>
	<path fill="#FDCE87" fill-opacity="0.52156866" transform="scale(0.490885 0.450617)" d="M374.887 293.182L375.825 293.85C375.912 293.03 375.947 292.315 376.291 291.556C376.324 292.377 376.329 293.061 376.572 293.856L378.253 286.276L377.773 292.982L377.361 293.443L376.927 299.797L376.5 299.797C376.01 298.877 375.682 298.19 375.452 297.175L374.862 295.212C374.644 294.422 374.746 293.966 374.887 293.182Z"/>
	<path fill="#DCC39E" fill-opacity="0.90196079" transform="scale(0.490885 0.450617)" d="M368.356 59.9916C371.32 58.6184 375.658 57.1855 378.943 57.4393C378.205 69.2584 378.744 81.3778 378.753 93.2272L378.921 166.534L378.845 189.235C378.832 192.574 379.164 196.37 378.715 199.657L378.59 178.466C377.224 172.629 379.278 165.751 377.747 159.917L377.408 161.227C376.689 163.112 377.378 165.015 376.759 166.849C376.277 166.37 376.336 164.208 376.27 163.467C374.718 167.463 374.206 172.204 373.242 176.396C372.83 178.187 372.478 180.357 371.328 181.822C371.092 181.133 370.976 179.533 371.141 178.829L371.422 178.174C370.593 176.193 371.122 172.038 371.033 169.713L370.575 169.507C369.947 169.208 370.174 169.363 369.718 168.876L369.766 169.216C369.891 170.289 369.63 171.262 369.877 172.336C370.202 173.745 369.996 175.396 369.95 176.842C369.646 176.505 369.587 176.257 369.445 175.833C369.14 181.302 369.607 187.771 368.586 193.071L368.686 181.611L368.356 59.9916ZM376.058 135.157C375.916 137.01 375.055 138.745 375.167 140.348L375.354 139.412C375.735 139.901 376.02 140.367 376.004 141.017L375.819 142.315L375.94 143.421C376.129 145 375.848 146.263 375.129 147.653C373.445 150.908 373.007 155.216 372.365 158.793C371.678 162.62 370.824 165.778 371.033 169.713C371.122 172.038 370.593 176.193 371.422 178.174L371.141 178.829C370.976 179.533 371.092 181.133 371.328 181.822C372.478 180.357 372.83 178.187 373.242 176.396C374.206 172.204 374.718 167.463 376.27 163.467C376.336 164.208 376.277 166.37 376.759 166.849C377.378 165.015 376.689 163.112 377.408 161.227L377.747 159.917C379.278 165.751 377.224 172.629 378.59 178.466C379.145 172.854 378.643 166.696 378.533 161.039C378.338 150.993 378.505 140.663 376.959 130.712C376.41 131.206 376.975 133.311 376.759 134.075C376.642 134.488 376.292 134.796 376.058 135.157ZM368.686 181.611L368.586 193.071C369.607 187.771 369.14 181.302 369.445 175.833C369.587 176.257 369.646 176.505 369.95 176.842C369.996 175.396 370.202 173.745 369.877 172.336C369.63 171.262 369.891 170.289 369.766 169.216L369.718 168.876C370.174 169.363 369.947 169.208 370.575 169.507L371.033 169.713C370.824 165.778 371.678 162.62 372.365 158.793C373.007 155.216 373.445 150.908 375.129 147.653C375.848 146.263 376.129 145 375.94 143.421L375.819 142.315L376.004 141.017C376.02 140.367 375.735 139.901 375.354 139.412L375.167 140.348C375.055 138.745 375.916 137.01 376.058 135.157C376.051 134.128 376.029 133.192 376.243 132.182C376.549 130.732 376.354 129.108 376.298 127.629L375.97 127.521L375.823 129.023L375.263 129.208C375.094 129.934 375.067 130.528 375.073 131.27C375.082 132.183 374.83 133.011 374.605 133.89L374.304 131.059L374.474 129.662L374.236 129.581C373.446 131.93 372.691 134.342 372.273 136.788C371.719 140.029 371.472 143.742 370.204 146.78C369.252 149.06 369.4 152.194 369.247 154.668L368.686 181.611Z"/>
	<path fill="#D9C19B" fill-opacity="0.40784314" transform="scale(0.490885 0.450617)" d="M368.686 181.611L369.247 154.668C369.4 152.194 369.252 149.06 370.204 146.78C371.472 143.742 371.719 140.029 372.273 136.788C372.691 134.342 373.446 131.93 374.236 129.581L374.474 129.662L374.304 131.059L374.605 133.89C374.83 133.011 375.082 132.183 375.073 131.27C375.067 130.528 375.094 129.934 375.263 129.208L375.823 129.023L375.97 127.521L376.298 127.629C376.354 129.108 376.549 130.732 376.243 132.182C376.029 133.192 376.051 134.128 376.058 135.157C375.916 137.01 375.055 138.745 375.167 140.348L375.354 139.412C375.735 139.901 376.02 140.367 376.004 141.017L375.819 142.315L375.94 143.421C376.129 145 375.848 146.263 375.129 147.653C373.445 150.908 373.007 155.216 372.365 158.793C371.678 162.62 370.824 165.778 371.033 169.713L370.575 169.507C369.947 169.208 370.174 169.363 369.718 168.876L369.766 169.216C369.891 170.289 369.63 171.262 369.877 172.336C370.202 173.745 369.996 175.396 369.95 176.842C369.646 176.505 369.587 176.257 369.445 175.833C369.14 181.302 369.607 187.771 368.586 193.071L368.686 181.611Z"/>
	<path fill="#FDCE87" fill-opacity="0.31764707" transform="scale(0.490885 0.450617)" d="M376.058 135.157C376.292 134.796 376.642 134.488 376.759 134.075C376.975 133.311 376.41 131.206 376.959 130.712C378.505 140.663 378.338 150.993 378.533 161.039C378.643 166.696 379.145 172.854 378.59 178.466C377.224 172.629 379.278 165.751 377.747 159.917L377.408 161.227C376.689 163.112 377.378 165.015 376.759 166.849C376.277 166.37 376.336 164.208 376.27 163.467C374.718 167.463 374.206 172.204 373.242 176.396C372.83 178.187 372.478 180.357 371.328 181.822C371.092 181.133 370.976 179.533 371.141 178.829L371.422 178.174C370.593 176.193 371.122 172.038 371.033 169.713C370.824 165.778 371.678 162.62 372.365 158.793C373.007 155.216 373.445 150.908 375.129 147.653C375.848 146.263 376.129 145 375.94 143.421L375.819 142.315L376.004 141.017C376.02 140.367 375.735 139.901 375.354 139.412L375.167 140.348C375.055 138.745 375.916 137.01 376.058 135.157Z"/>
	<defs>
		<linearGradient id="gradient_0" gradientUnits="userSpaceOnUse" x1="380.73401" y1="226.688" x2="366.98901" y2="227.515">
			<stop offset="0" stop-color="#DBC49D" stop-opacity="0"/>
			<stop offset="1" stop-color="#DBC29C" stop-opacity="0.078431375"/>
		</linearGradient>
	</defs>
	<path fill="url(#gradient_0)" transform="scale(0.490885 0.450617)" d="M371.033 169.713C371.122 172.038 370.593 176.193 371.422 178.174L371.141 178.829C370.976 179.533 371.092 181.133 371.328 181.822C372.478 180.357 372.83 178.187 373.242 176.396C374.206 172.204 374.718 167.463 376.27 163.467C376.336 164.208 376.277 166.37 376.759 166.849C377.378 165.015 376.689 163.112 377.408 161.227L377.747 159.917C379.278 165.751 377.224 172.629 378.59 178.466L378.715 199.657L378.571 272.415C378.596 274.6 378.231 277.641 378.676 279.721L378.253 286.276L376.572 293.856C376.329 293.061 376.324 292.377 376.291 291.556C375.947 292.315 375.912 293.03 375.825 293.85L374.887 293.182L374.772 293.234C373.935 295.409 374.132 297.841 374.098 300.137C373.161 297.858 373.219 294.751 371.981 292.664L371.637 292.119L370.954 291.01L370.018 290.94L369.627 291.557L369.154 291.502C368.951 289.735 368.816 288.058 368.88 286.272L368.557 283.799L368.567 268.807L368.586 193.071C369.607 187.771 369.14 181.302 369.445 175.833C369.587 176.257 369.646 176.505 369.95 176.842C369.996 175.396 370.202 173.745 369.877 172.336C369.63 171.262 369.891 170.289 369.766 169.216L369.718 168.876C370.174 169.363 369.947 169.208 370.575 169.507L371.033 169.713ZM371.007 278.465C370.995 279.37 370.693 281.422 370.958 282.195C371.199 282.9 371.66 282.689 371.338 283.482C370.97 284.384 370.984 285.695 370.767 286.689L370.673 287.44C369.938 286.387 369.978 286.021 369.876 284.774C369.407 285.138 369.259 285.577 368.981 286.091L368.88 286.272C368.816 288.058 368.951 289.735 369.154 291.502L369.627 291.557L370.018 290.94L370.954 291.01L371.637 292.119L371.981 292.664C373.219 294.751 373.161 297.858 374.098 300.137C374.132 297.841 373.935 295.409 374.772 293.234L374.887 293.182L375.825 293.85C375.912 293.03 375.947 292.315 376.291 291.556C376.324 292.377 376.329 293.061 376.572 293.856L378.253 286.276L378.676 279.721C378.231 277.641 378.596 274.6 378.571 272.415L378.359 273.056C377.777 274.967 378.033 277.715 378.015 279.744L377.391 273.021C376.881 274.127 377.113 275.588 377.117 276.798C377.127 279.659 377.554 283.211 376.946 285.943L376.568 285.752C376.56 283.699 376.318 281.293 376.604 279.278C377.016 276.372 377.748 270.431 376.197 267.967L375.633 267.778L373.388 266.65L373.388 280.697L372.145 280.014L371.761 277.48C371.709 276.868 371.625 276.372 371.463 275.785L371.141 275.828L371.007 278.465ZM368.567 268.807L368.557 283.799L368.88 286.272L368.981 286.091C369.259 285.577 369.407 285.138 369.876 284.774C369.978 286.021 369.938 286.387 370.673 287.44L370.767 286.689C370.984 285.695 370.97 284.384 371.338 283.482C371.66 282.689 371.199 282.9 370.958 282.195C370.693 281.422 370.995 279.37 371.007 278.465C370.567 278.374 370.397 278.112 370.068 277.817L369.985 272.645C369.525 273.799 369.382 275.257 369.13 276.483L368.567 268.807Z"/>
	<path fill="#D9C19B" fill-opacity="0.39215687" transform="scale(0.490885 0.450617)" d="M368.567 268.807L369.13 276.483C369.382 275.257 369.525 273.799 369.985 272.645L370.068 277.817C370.397 278.112 370.567 278.374 371.007 278.465C370.995 279.37 370.693 281.422 370.958 282.195C371.199 282.9 371.66 282.689 371.338 283.482C370.97 284.384 370.984 285.695 370.767 286.689L370.673 287.44C369.938 286.387 369.978 286.021 369.876 284.774C369.407 285.138 369.259 285.577 368.981 286.091L368.88 286.272L368.557 283.799L368.567 268.807Z"/>
	<defs>
		<linearGradient id="gradient_1" gradientUnits="userSpaceOnUse" x1="373.18301" y1="281.01001" x2="371.34601" y2="283.005">
			<stop offset="0" stop-color="#DAC29C" stop-opacity="0.30980393"/>
			<stop offset="1" stop-color="#DAC29C" stop-opacity="0.3764706"/>
		</linearGradient>
	</defs>
	<path fill="url(#gradient_1)" transform="scale(0.490885 0.450617)" d="M371.007 278.465L371.141 275.828L371.463 275.785C371.625 276.372 371.709 276.868 371.761 277.48L372.145 280.014L373.388 280.697L373.388 266.65L375.633 267.778L376.197 267.967C377.748 270.431 377.016 276.372 376.604 279.278C376.318 281.293 376.56 283.699 376.568 285.752L376.946 285.943C377.554 283.211 377.127 279.659 377.117 276.798C377.113 275.588 376.881 274.127 377.391 273.021L378.015 279.744C378.033 277.715 377.777 274.967 378.359 273.056L378.571 272.415C378.596 274.6 378.231 277.641 378.676 279.721L378.253 286.276L376.572 293.856C376.329 293.061 376.324 292.377 376.291 291.556C375.947 292.315 375.912 293.03 375.825 293.85L374.887 293.182L374.772 293.234C373.935 295.409 374.132 297.841 374.098 300.137C373.161 297.858 373.219 294.751 371.981 292.664L371.637 292.119L370.954 291.01L370.018 290.94L369.627 291.557L369.154 291.502C368.951 289.735 368.816 288.058 368.88 286.272L368.981 286.091C369.259 285.577 369.407 285.138 369.876 284.774C369.978 286.021 369.938 286.387 370.673 287.44L370.767 286.689C370.984 285.695 370.97 284.384 371.338 283.482C371.66 282.689 371.199 282.9 370.958 282.195C370.693 281.422 370.995 279.37 371.007 278.465Z"/>
	<path fill="#F2BF52" transform="scale(0.490885 0.450617)" d="M482.382 83.243L539.013 98.652L558.928 104.108C562.711 105.134 567.124 105.972 570.673 107.572C570.465 107.855 570.163 108.089 570.05 108.421C569.645 109.62 570.037 112.849 570.033 114.22L570.005 133.33L570.001 194.295L570.029 225.996L586.923 231.263L586.387 248.166L570.092 243.51L569.993 306.675L569.972 322.284C569.92 324.331 569.346 326.373 569.674 328.394L567.435 328.166C565.571 330.85 565.906 337.334 565.396 340.667C564.854 344.213 563.906 347.708 563.549 351.282L481.741 345.09L481.976 283.685L481.988 160.635L482.153 96.983C482.274 92.6562 481.603 87.409 482.382 83.243ZM570.092 243.51L586.387 248.166L586.923 231.263L570.029 225.996L511.124 208.559L510.857 228.07L570.092 243.51Z"/>
	<path fill="#00655A" transform="scale(0.490885 0.450617)" d="M379.127 421.568L497.225 404.39L534.733 399.275C539.465 398.703 544.834 397.583 549.596 397.746C554.019 397.897 558.245 399.796 562.476 400.895C567.601 402.226 572.807 403.201 578.068 403.782L578.237 525.387L593.638 525.464L594.218 544.092L577.175 544.552L577.512 615.835L577.791 642.156C577.837 646.915 577.388 651.686 578.19 656.439L431.487 693.353L395.859 702.326C390.215 703.758 384.336 705.92 378.565 706.562C375.514 706.05 372.145 705.497 369.445 703.917C370.17 700.589 369.745 697.841 369.687 694.532L369.652 681.425L370.053 641.19L370.244 640.803L370.53 640.955L371.128 640.602C372.595 637.785 372.13 634.169 372.074 631.068C372.366 631.305 372.188 631.182 372.699 631.415L373.137 631.611C373.243 632.511 373.405 632.851 373.984 633.547C374.956 633.15 375.006 633.241 375.428 632.297C375.473 630.13 375.118 627.549 375.533 625.457L375.637 625.062L375.743 624.628C375.873 624.114 375.645 623.857 375.452 623.375C376.837 620.007 376.769 616.05 376.859 612.458L376.511 589.856C376.543 585.825 377.135 581.749 377.564 577.742C377.977 579.367 378.014 580.827 378.031 582.486L378.145 568.629C378.199 567.278 377.962 565.694 378.257 564.389C378.795 562.006 378.772 559.34 378.938 556.885C378.427 553.032 378.967 548.308 378.983 544.353L378.959 512.022L378.956 511.652C379.167 509.777 378.979 507.655 378.962 505.756L378.944 499.43C379.035 496.809 379.022 494.009 378.475 491.438L377.695 491.631C377.163 490.07 376.203 488.783 375.667 487.268L375.512 486.804C375.577 485.541 375.53 484.273 376.103 483.122L376.665 482.935C376.696 482.389 376.705 481.93 376.899 481.412C377.063 480.976 377.165 480.891 377.133 480.311C377.078 479.298 376.509 478.294 376.852 477.13C377.459 475.07 376.884 477.874 377.244 476.06L377.321 475.625C378.051 477.899 378.332 480.272 378.687 482.627C379.565 478.881 379.185 473.822 379.271 469.917L379.127 421.568ZM578.237 525.387L533.043 527.23L517.631 527.685C515.519 527.745 512.208 527.49 510.287 528.288L510.785 583.856L528.432 579.174L528.356 545.65C530.75 544.46 540.181 545.211 543.229 545.162L577.175 544.552L594.218 544.092L593.638 525.464L578.237 525.387ZM375.428 632.297C375.006 633.241 374.956 633.15 373.984 633.547C373.405 632.851 373.243 632.511 373.137 631.611L372.699 631.415C372.188 631.182 372.366 631.305 372.074 631.068C372.13 634.169 372.595 637.785 371.128 640.602L370.53 640.955L370.244 640.803L370.053 641.19L369.652 681.425L369.687 694.532C369.745 697.841 370.17 700.589 369.445 703.917C372.145 705.497 375.514 706.05 378.565 706.562L378.723 663.139C378.718 653.18 377.935 642.454 379.117 632.594C378.874 630.956 378.874 629.373 378.888 627.723C378.602 630.599 377.63 633.151 377.129 635.958C376.785 637.88 376.797 639.931 376.738 641.881C376.714 642.684 376.709 643.354 376.478 644.129C376.41 642.18 376.338 640.441 376.01 638.542C375.902 637.92 375.956 637.423 375.77 636.803C375.533 636.015 375.64 635.227 375.644 634.416C375.65 633.031 375.674 634.712 375.448 633.299L375.532 632.535L375.428 632.297ZM378.938 556.885C378.772 559.34 378.795 562.006 378.257 564.389C377.962 565.694 378.199 567.278 378.145 568.629L378.031 582.486C378.014 580.827 377.977 579.367 377.564 577.742C377.135 581.749 376.543 585.825 376.511 589.856L376.859 612.458C376.769 616.05 376.837 620.007 375.452 623.375C375.645 623.857 375.873 624.114 375.743 624.628L375.637 625.062L375.533 625.457C375.118 627.549 375.473 630.13 375.428 632.297L375.532 632.535L375.448 633.299C375.674 634.712 375.65 633.031 375.644 634.416C375.64 635.227 375.533 636.015 375.77 636.803C375.956 637.423 375.902 637.92 376.01 638.542C376.338 640.441 376.41 642.18 376.478 644.129C376.709 643.354 376.714 642.684 376.738 641.881C376.797 639.931 376.785 637.88 377.129 635.958C377.63 633.151 378.602 630.599 378.888 627.723L378.938 556.885ZM379.271 469.917C379.185 473.822 379.565 478.881 378.687 482.627C378.332 480.272 378.051 477.899 377.321 475.625L377.244 476.06C376.884 477.874 377.459 475.07 376.852 477.13C376.509 478.294 377.078 479.298 377.133 480.311C377.165 480.891 377.063 480.976 376.899 481.412C376.705 481.93 376.696 482.389 376.665 482.935L376.103 483.122C375.53 484.273 375.577 485.541 375.512 486.804L375.667 487.268C376.203 488.783 377.163 490.07 377.695 491.631L378.475 491.438C379.022 494.009 379.035 496.809 378.944 499.43L378.962 505.756C378.979 507.655 379.167 509.777 378.956 511.652L378.959 512.022L378.983 544.353C378.967 548.308 378.427 553.032 378.938 556.885L378.888 627.723C378.874 629.373 378.874 630.956 379.117 632.594C379.772 626.531 379.324 619.996 379.325 613.881L379.316 578.571L379.271 469.917Z"/>
	<path fill="#CFCECD" fill-opacity="0.67058825" transform="scale(0.490885 0.450617)" d="M379.271 469.917L379.316 578.571L379.325 613.881C379.324 619.996 379.772 626.531 379.117 632.594C378.874 630.956 378.874 629.373 378.888 627.723L378.938 556.885C378.427 553.032 378.967 548.308 378.983 544.353L378.959 512.022L378.956 511.652C379.167 509.777 378.979 507.655 378.962 505.756L378.944 499.43C379.035 496.809 379.022 494.009 378.475 491.438L377.695 491.631C377.163 490.07 376.203 488.783 375.667 487.268L375.512 486.804C375.577 485.541 375.53 484.273 376.103 483.122L376.665 482.935C376.696 482.389 376.705 481.93 376.899 481.412C377.063 480.976 377.165 480.891 377.133 480.311C377.078 479.298 376.509 478.294 376.852 477.13C377.459 475.07 376.884 477.874 377.244 476.06L377.321 475.625C378.051 477.899 378.332 480.272 378.687 482.627C379.565 478.881 379.185 473.822 379.271 469.917Z"/>
	<path fill="#CFCFCD" fill-opacity="0.627451" transform="scale(0.490885 0.450617)" d="M378.938 556.885L378.888 627.723C378.602 630.599 377.63 633.151 377.129 635.958C376.785 637.88 376.797 639.931 376.738 641.881C376.714 642.684 376.709 643.354 376.478 644.129C376.41 642.18 376.338 640.441 376.01 638.542C375.902 637.92 375.956 637.423 375.77 636.803C375.533 636.015 375.64 635.227 375.644 634.416C375.65 633.031 375.674 634.712 375.448 633.299L375.532 632.535L375.428 632.297C375.473 630.13 375.118 627.549 375.533 625.457L375.637 625.062L375.743 624.628C375.873 624.114 375.645 623.857 375.452 623.375C376.837 620.007 376.769 616.05 376.859 612.458L376.511 589.856C376.543 585.825 377.135 581.749 377.564 577.742C377.977 579.367 378.014 580.827 378.031 582.486L378.145 568.629C378.199 567.278 377.962 565.694 378.257 564.389C378.795 562.006 378.772 559.34 378.938 556.885Z"/>
	<path fill="#D2D1D0" fill-opacity="0.93725491" transform="scale(0.490885 0.450617)" d="M375.428 632.297L375.532 632.535L375.448 633.299C375.674 634.712 375.65 633.031 375.644 634.416C375.64 635.227 375.533 636.015 375.77 636.803C375.956 637.423 375.902 637.92 376.01 638.542C376.338 640.441 376.41 642.18 376.478 644.129C376.709 643.354 376.714 642.684 376.738 641.881C376.797 639.931 376.785 637.88 377.129 635.958C377.63 633.151 378.602 630.599 378.888 627.723C378.874 629.373 378.874 630.956 379.117 632.594C377.935 642.454 378.718 653.18 378.723 663.139L378.565 706.562C375.514 706.05 372.145 705.497 369.445 703.917C370.17 700.589 369.745 697.841 369.687 694.532L369.652 681.425L370.053 641.19L370.244 640.803L370.53 640.955L371.128 640.602C372.595 637.785 372.13 634.169 372.074 631.068C372.366 631.305 372.188 631.182 372.699 631.415L373.137 631.611C373.243 632.511 373.405 632.851 373.984 633.547C374.956 633.15 375.006 633.241 375.428 632.297Z"/>
	<path fill="#47ABA8" transform="scale(0.490885 0.450617)" d="M190.654 406.11C194.81 405.522 198.803 404.585 202.821 403.378C206.872 402.161 211.163 400.249 215.447 400.243C219.137 400.237 222.72 400.877 226.376 401.222L245.405 403.134L335.86 415.619L356.378 418.513C360.851 419.134 365.638 419.219 369.83 420.968L371.029 421.459C373.91 422.211 376.187 422.044 379.127 421.568L379.271 469.917C379.185 473.822 379.565 478.881 378.687 482.627C378.332 480.272 378.051 477.899 377.321 475.625L377.244 476.06C376.884 477.874 377.459 475.07 376.852 477.13C376.509 478.294 377.078 479.298 377.133 480.311C377.165 480.891 377.063 480.976 376.899 481.412C376.705 481.93 376.696 482.389 376.665 482.935L376.103 483.122C375.53 484.273 375.577 485.541 375.512 486.804L375.667 487.268C376.203 488.783 377.163 490.07 377.695 491.631L378.475 491.438C379.022 494.009 379.035 496.809 378.944 499.43L378.962 505.756C378.979 507.655 379.167 509.777 378.956 511.652L378.959 512.022L378.983 544.353C378.967 548.308 378.427 553.032 378.938 556.885C378.772 559.34 378.795 562.006 378.257 564.389C377.962 565.694 378.199 567.278 378.145 568.629L378.031 582.486C378.014 580.827 377.977 579.367 377.564 577.742C377.135 581.749 376.543 585.825 376.511 589.856L376.859 612.458C376.769 616.05 376.837 620.007 375.452 623.375C375.645 623.857 375.873 624.114 375.743 624.628L375.637 625.062L375.533 625.457C375.118 627.549 375.473 630.13 375.428 632.297C375.006 633.241 374.956 633.15 373.984 633.547C373.405 632.851 373.243 632.511 373.137 631.611L372.699 631.415C372.188 631.182 372.366 631.305 372.074 631.068C372.13 634.169 372.595 637.785 371.128 640.602L370.53 640.955L370.244 640.803L370.053 641.19L369.652 681.425L369.687 694.532C369.745 697.841 370.17 700.589 369.445 703.917L310.178 688.115L193.248 658.249L119.75 639.84L85.0006 631.2L85.3088 565.926C91.9798 560.925 97.8759 554.418 103.834 548.593L120.919 532.562L129.255 525.146L152.587 502.947L188.789 469.118C189.736 467.858 190.87 466.747 191.956 465.608C191.971 461.201 191.138 456.95 191.026 452.563L190.988 420.439C190.988 417.914 191.633 407.894 190.654 406.11ZM190.349 544.875L195.044 545.096L238.206 546.162L238.698 546.141L238.621 580.115L257.842 585.295L258.013 529.205L193.41 525.809L188.849 525.534L174.539 525.471L174.636 544.362L190.349 544.875ZM370.804 497.26L370.797 507.265L370.797 546.297L370.652 569.706L370.734 578.826C370.159 584.096 370.358 589.514 370.374 594.811L370.492 622.857C370.524 628.796 370.788 634.885 370.244 640.803L370.53 640.955L371.128 640.602C372.595 637.785 372.13 634.169 372.074 631.068C372.366 631.305 372.188 631.182 372.699 631.415L373.137 631.611C373.243 632.511 373.405 632.851 373.984 633.547C374.956 633.15 375.006 633.241 375.428 632.297C375.473 630.13 375.118 627.549 375.533 625.457L375.637 625.062L375.743 624.628C375.873 624.114 375.645 623.857 375.452 623.375C376.837 620.007 376.769 616.05 376.859 612.458L376.511 589.856C376.543 585.825 377.135 581.749 377.564 577.742C377.977 579.367 378.014 580.827 378.031 582.486L378.145 568.629C378.199 567.278 377.962 565.694 378.257 564.389C378.795 562.006 378.772 559.34 378.938 556.885C378.427 553.032 378.967 548.308 378.983 544.353L378.959 512.022L378.956 511.652C379.167 509.777 378.979 507.655 378.962 505.756L378.944 499.43C378.732 498.494 378.857 497.276 378.542 496.415C378.309 495.779 377.77 495.858 377.204 495.719L376.165 493.045L375.729 492.859L375.514 495.418L372.448 495.292L371.343 492.014L370.848 497.26L370.804 497.26ZM371.029 421.459C370.856 421.664 370.606 421.824 370.509 422.075C370.23 422.798 370.467 424.811 370.458 425.652L370.437 440.043L370.53 512.943L370.522 550.858C370.533 556.965 370.216 563.251 370.619 569.331L370.652 569.706L370.797 546.297L370.797 507.265L370.804 497.26L370.848 497.26L371.343 492.014L372.448 495.292L375.514 495.418L375.729 492.859L376.165 493.045L377.204 495.719C377.77 495.858 378.309 495.779 378.542 496.415C378.857 497.276 378.732 498.494 378.944 499.43C379.035 496.809 379.022 494.009 378.475 491.438L377.695 491.631C377.163 490.07 376.203 488.783 375.667 487.268L375.512 486.804C375.577 485.541 375.53 484.273 376.103 483.122L376.665 482.935C376.696 482.389 376.705 481.93 376.899 481.412C377.063 480.976 377.165 480.891 377.133 480.311C377.078 479.298 376.509 478.294 376.852 477.13C377.459 475.07 376.884 477.874 377.244 476.06L377.321 475.625C378.051 477.899 378.332 480.272 378.687 482.627C379.565 478.881 379.185 473.822 379.271 469.917L379.127 421.568C376.187 422.044 373.91 422.211 371.029 421.459Z"/>
	<path fill="#26A1AF" transform="scale(0.490885 0.450617)" d="M191.956 465.608C193.017 468.439 193.044 472.119 193.238 475.143C193.82 484.192 193.581 493.34 193.566 502.407L193.41 525.809L188.849 525.534C189.19 523.843 189.018 521.941 189.018 520.219L189.019 510.101L188.789 469.118C189.736 467.858 190.87 466.747 191.956 465.608Z"/>
	<path fill="#D2D1D0" fill-opacity="0.93725491" transform="scale(0.490885 0.450617)" d="M371.029 421.459C373.91 422.211 376.187 422.044 379.127 421.568L379.271 469.917C379.185 473.822 379.565 478.881 378.687 482.627C378.332 480.272 378.051 477.899 377.321 475.625L377.244 476.06C376.884 477.874 377.459 475.07 376.852 477.13C376.509 478.294 377.078 479.298 377.133 480.311C377.165 480.891 377.063 480.976 376.899 481.412C376.705 481.93 376.696 482.389 376.665 482.935L376.103 483.122C375.53 484.273 375.577 485.541 375.512 486.804L375.667 487.268C376.203 488.783 377.163 490.07 377.695 491.631L378.475 491.438C379.022 494.009 379.035 496.809 378.944 499.43C378.732 498.494 378.857 497.276 378.542 496.415C378.309 495.779 377.77 495.858 377.204 495.719L376.165 493.045L375.729 492.859L375.514 495.418L372.448 495.292L371.343 492.014L370.848 497.26L370.804 497.26L370.797 507.265L370.797 546.297L370.652 569.706L370.619 569.331C370.216 563.251 370.533 556.965 370.522 550.858L370.53 512.943L370.437 440.043L370.458 425.652C370.467 424.811 370.23 422.798 370.509 422.075C370.606 421.824 370.856 421.664 371.029 421.459ZM370.804 497.26L370.848 497.26L371.343 492.014L372.448 495.292L375.514 495.418L375.729 492.859L376.165 493.045L377.204 495.719C377.77 495.858 378.309 495.779 378.542 496.415C378.857 497.276 378.732 498.494 378.944 499.43C379.035 496.809 379.022 494.009 378.475 491.438L377.695 491.631C377.163 490.07 376.203 488.783 375.667 487.268L375.512 486.804L373.942 486.534L373.981 486.021C374.062 484.479 373.997 486.389 373.84 484.883L373.956 483.935L373.388 483.686C372.597 484.477 373.05 484.848 372.456 485.742L372.408 485.165C372.309 484.381 372.075 483.878 371.729 483.183L371.516 483.869L371.328 484.435C371.117 483.797 371.035 483.221 370.941 482.558L370.721 493.042C370.721 494.322 370.524 496.044 370.804 497.26Z"/>
	<path fill="#CFCFCE" fill-opacity="0.51372552" transform="scale(0.490885 0.450617)" d="M370.804 497.26C370.524 496.044 370.721 494.322 370.721 493.042L370.941 482.558C371.035 483.221 371.117 483.797 371.328 484.435L371.516 483.869L371.729 483.183C372.075 483.878 372.309 484.381 372.408 485.165L372.456 485.742C373.05 484.848 372.597 484.477 373.388 483.686L373.956 483.935L373.84 484.883C373.997 486.389 374.062 484.479 373.981 486.021L373.942 486.534L375.512 486.804L375.667 487.268C376.203 488.783 377.163 490.07 377.695 491.631L378.475 491.438C379.022 494.009 379.035 496.809 378.944 499.43C378.732 498.494 378.857 497.276 378.542 496.415C378.309 495.779 377.77 495.858 377.204 495.719L376.165 493.045L375.729 492.859L375.514 495.418L372.448 495.292L371.343 492.014L370.848 497.26L370.804 497.26Z"/>
	<path fill="#CFCFCD" fill-opacity="0.27843139" transform="scale(0.490885 0.450617)" d="M370.804 497.26L370.848 497.26L371.343 492.014L372.448 495.292L375.514 495.418L375.729 492.859L376.165 493.045L377.204 495.719C377.77 495.858 378.309 495.779 378.542 496.415C378.857 497.276 378.732 498.494 378.944 499.43L378.962 505.756C378.979 507.655 379.167 509.777 378.956 511.652L378.959 512.022L378.983 544.353C378.967 548.308 378.427 553.032 378.938 556.885C378.772 559.34 378.795 562.006 378.257 564.389C377.962 565.694 378.199 567.278 378.145 568.629L378.031 582.486C378.014 580.827 377.977 579.367 377.564 577.742C377.135 581.749 376.543 585.825 376.511 589.856L376.859 612.458C376.769 616.05 376.837 620.007 375.452 623.375C375.645 623.857 375.873 624.114 375.743 624.628L375.637 625.062L375.533 625.457C375.118 627.549 375.473 630.13 375.428 632.297C375.006 633.241 374.956 633.15 373.984 633.547C373.405 632.851 373.243 632.511 373.137 631.611L372.699 631.415C372.188 631.182 372.366 631.305 372.074 631.068C372.13 634.169 372.595 637.785 371.128 640.602L370.53 640.955L370.244 640.803C370.788 634.885 370.524 628.796 370.492 622.857L370.374 594.811C370.358 589.514 370.159 584.096 370.734 578.826L370.652 569.706L370.797 546.297L370.797 507.265L370.804 497.26ZM370.797 546.297L370.652 569.706L370.734 578.826C370.159 584.096 370.358 589.514 370.374 594.811L370.492 622.857C370.524 628.796 370.788 634.885 370.244 640.803L370.53 640.955L371.128 640.602C372.595 637.785 372.13 634.169 372.074 631.068C372.366 631.305 372.188 631.182 372.699 631.415L373.137 631.611C373.243 632.511 373.405 632.851 373.984 633.547C374.956 633.15 375.006 633.241 375.428 632.297C375.473 630.13 375.118 627.549 375.533 625.457L375.637 625.062L375.743 624.628C375.873 624.114 375.645 623.857 375.452 623.375C376.837 620.007 376.769 616.05 376.859 612.458L376.511 589.856C376.543 585.825 377.135 581.749 377.564 577.742L377.563 577.533C377.984 576.164 378.084 575.203 378.004 573.752L377.734 556.704L375.677 570.217L375.543 558.78L374.112 560.199C373.241 560.014 373.597 560.143 373.018 559.888L372.359 560.432L372.164 557.049L371.398 563.827L370.797 546.297ZM375.543 558.78L375.677 570.217L377.734 556.704L378.004 573.752C378.084 575.203 377.984 576.164 377.563 577.533L377.564 577.742C377.977 579.367 378.014 580.827 378.031 582.486L378.145 568.629C378.199 567.278 377.962 565.694 378.257 564.389C378.795 562.006 378.772 559.34 378.938 556.885C378.427 553.032 378.967 548.308 378.983 544.353L378.959 512.022C377.897 514.156 378.791 520.16 378.795 522.708L378.444 541.526C377.887 539.265 378.739 534.87 377.699 533.305L378.073 532.743L377.886 532.146C377.704 531.509 377.66 531.139 377.699 530.496L378.073 530.121L377.886 529.636C377.32 528.04 377.676 525.467 377.699 523.755L378.073 523.38C378.006 522.732 377.833 522.306 377.699 521.695L377.699 515.89L378.073 515.515L378 514.823C377.924 514.056 377.946 513.352 377.999 512.584L377.678 512.251C377.718 521.728 378.278 531.583 377.618 541.019C377.192 547.101 375.28 552.635 375.543 558.78ZM370.804 497.26L370.797 507.265L371.321 498.605L372.279 500.649L372.587 500.014L372.42 499.654C372.107 498.703 372.301 497.564 372.367 496.577C373.514 496.4 374.506 496.427 375.661 496.521C375.612 497.646 375.706 496.463 375.452 497.726C374.431 502.801 377.301 506.47 377.695 511.265L378.208 510.647C377.934 509.477 378 509.387 378.454 508.262C378.523 509.445 378.466 510.559 378.956 511.652C379.167 509.777 378.979 507.655 378.962 505.756L378.944 499.43C378.732 498.494 378.857 497.276 378.542 496.415C378.309 495.779 377.77 495.858 377.204 495.719L376.165 493.045L375.729 492.859L375.514 495.418L372.448 495.292L371.343 492.014L370.848 497.26L370.804 497.26Z"/>
	<path fill="#CFCFCD" fill-opacity="0.40392157" transform="scale(0.490885 0.450617)" d="M370.804 497.26L370.848 497.26L371.343 492.014L372.448 495.292L375.514 495.418L375.729 492.859L376.165 493.045L377.204 495.719C377.77 495.858 378.309 495.779 378.542 496.415C378.857 497.276 378.732 498.494 378.944 499.43L378.962 505.756C378.979 507.655 379.167 509.777 378.956 511.652C378.466 510.559 378.523 509.445 378.454 508.262C378 509.387 377.934 509.477 378.208 510.647L377.695 511.265C377.301 506.47 374.431 502.801 375.452 497.726C375.706 496.463 375.612 497.646 375.661 496.521C374.506 496.427 373.514 496.4 372.367 496.577C372.301 497.564 372.107 498.703 372.42 499.654L372.587 500.014L372.279 500.649L371.321 498.605L370.797 507.265L370.804 497.26ZM375.514 495.418L377.068 496.415C376.501 497.707 377.123 499.398 377.362 500.788L378.07 501.655L378.471 501.097L378.962 505.756L378.944 499.43C378.732 498.494 378.857 497.276 378.542 496.415C378.309 495.779 377.77 495.858 377.204 495.719L376.165 493.045L375.729 492.859L375.514 495.418Z"/>
	<path fill="#CFCFCD" fill-opacity="0.47058824" transform="scale(0.490885 0.450617)" d="M375.514 495.418L375.729 492.859L376.165 493.045L377.204 495.719C377.77 495.858 378.309 495.779 378.542 496.415C378.857 497.276 378.732 498.494 378.944 499.43L378.962 505.756L378.471 501.097L378.07 501.655L377.362 500.788C377.123 499.398 376.501 497.707 377.068 496.415L375.514 495.418Z"/>
	<path fill="#CFCFCD" fill-opacity="0.41568628" transform="scale(0.490885 0.450617)" d="M375.543 558.78C375.28 552.635 377.192 547.101 377.618 541.019C378.278 531.583 377.718 521.728 377.678 512.251L377.999 512.584C377.946 513.352 377.924 514.056 378 514.823L378.073 515.515L377.699 515.89L377.699 521.695C377.833 522.306 378.006 522.732 378.073 523.38L377.699 523.755C377.676 525.467 377.32 528.04 377.886 529.636L378.073 530.121L377.699 530.496C377.66 531.139 377.704 531.509 377.886 532.146L378.073 532.743L377.699 533.305C378.739 534.87 377.887 539.265 378.444 541.526L378.795 522.708C378.791 520.16 377.897 514.156 378.959 512.022L378.983 544.353C378.967 548.308 378.427 553.032 378.938 556.885C378.772 559.34 378.795 562.006 378.257 564.389C377.962 565.694 378.199 567.278 378.145 568.629L378.031 582.486C378.014 580.827 377.977 579.367 377.564 577.742L377.563 577.533C377.984 576.164 378.084 575.203 378.004 573.752L377.734 556.704L375.677 570.217L375.543 558.78Z"/>
	<path fill="#CFCFCE" fill-opacity="0.51372552" transform="scale(0.490885 0.450617)" d="M370.797 546.297L371.398 563.827L372.164 557.049L372.359 560.432L373.018 559.888C373.597 560.143 373.241 560.014 374.112 560.199L375.543 558.78L375.677 570.217L377.734 556.704L378.004 573.752C378.084 575.203 377.984 576.164 377.563 577.533L377.564 577.742C377.135 581.749 376.543 585.825 376.511 589.856L376.859 612.458C376.769 616.05 376.837 620.007 375.452 623.375C375.645 623.857 375.873 624.114 375.743 624.628L375.637 625.062L375.533 625.457C375.118 627.549 375.473 630.13 375.428 632.297C375.006 633.241 374.956 633.15 373.984 633.547C373.405 632.851 373.243 632.511 373.137 631.611L372.699 631.415C372.188 631.182 372.366 631.305 372.074 631.068C372.13 634.169 372.595 637.785 371.128 640.602L370.53 640.955L370.244 640.803C370.788 634.885 370.524 628.796 370.492 622.857L370.374 594.811C370.358 589.514 370.159 584.096 370.734 578.826L370.652 569.706L370.797 546.297ZM370.797 546.297L370.652 569.706L370.734 578.826C371.096 581.084 370.888 583.668 370.904 585.967C371.813 582.939 371.913 578.593 371.93 575.435C371.94 573.619 371.784 571.44 372.217 569.679L372.349 569.264C372.13 568.685 372.035 568.416 372.157 567.79C372.631 565.365 372.416 562.894 372.359 560.432L372.164 557.049L371.398 563.827L370.797 546.297Z"/>
	<path fill="#CFCFCD" fill-opacity="0.41568628" transform="scale(0.490885 0.450617)" d="M370.797 546.297L371.398 563.827L372.164 557.049L372.359 560.432C372.416 562.894 372.631 565.365 372.157 567.79C372.035 568.416 372.13 568.685 372.349 569.264L372.217 569.679C371.784 571.44 371.94 573.619 371.93 575.435C371.913 578.593 371.813 582.939 370.904 585.967C370.888 583.668 371.096 581.084 370.734 578.826L370.652 569.706L370.797 546.297Z"/>
	<path fill="#009788" transform="scale(0.490885 0.450617)" d="M310.178 688.115L310.406 687.861L310.793 687.447C313.394 684.61 316.739 682.662 319.824 680.4L332.879 670.529L358.162 650.132L365.549 644.113C366.998 642.931 368.186 641.651 370.053 641.19L369.652 681.425L369.687 694.532C369.745 697.841 370.17 700.589 369.445 703.917L310.178 688.115Z"/>
	<path fill="#26A1AF" transform="scale(0.490885 0.450617)" d="M190.349 544.875L195.044 545.096L193.86 545.476L193.969 545.754C194.539 547.816 193.744 551.221 193.51 553.367C193.271 555.564 193.285 557.773 193.278 559.981L193.248 658.249L119.75 639.84C123.831 633.459 129.452 627.953 134.115 621.987L162.078 584.916L180.127 560.828C183.592 556.123 188.772 550.529 190.349 544.875Z"/>
	<path fill="#47ABA8" transform="scale(0.490885 0.450617)" d="M188.789 469.118L189.019 510.101L189.018 520.219C189.018 521.941 189.19 523.843 188.849 525.534L174.539 525.471L174.636 544.362L190.349 544.875C188.772 550.529 183.592 556.123 180.127 560.828L162.078 584.916L134.115 621.987C129.452 627.953 123.831 633.459 119.75 639.84L85.0006 631.2L85.3088 565.926C91.9798 560.925 97.8759 554.418 103.834 548.593L120.919 532.562L129.255 525.146L152.587 502.947L188.789 469.118Z"/>
	<path fill="#CE8A47" transform="scale(0.490885 0.450617)" d="M190.937 111.662C193.977 111.253 197.332 110.068 200.284 109.2L214.208 105.126L262.304 91.0864L338.184 69.0128L368.356 59.9916L368.686 181.611L368.586 193.071L368.567 268.807L368.557 283.799L368.582 297.564L368.446 340.475L195.73 354.586L170.532 356.784L130.892 359.945L119.999 361.169C118.261 361.378 116.149 361.87 114.413 361.674C112.474 361.454 110.553 360.47 108.785 359.679C105.989 358.427 103.175 357.128 100.272 356.141C96.0569 354.707 91.6437 354.013 87.2924 353.121C86.1264 350.78 85.9631 347.925 85.6722 345.363L85.5683 141.53L190.937 111.662ZM191.083 239.665C185.829 241.342 180.451 243.528 174.982 244.34L174.914 261.072L191.02 257.027L252.005 240.982C251.162 235.283 251.806 228.713 251.757 222.899L191.083 239.665Z"/>
	<path fill="#DCC39E" transform="scale(0.490885 0.450617)" d="M87.6661 345.145L192.363 334.671L195.73 354.586L170.532 356.784L130.892 359.945L119.999 361.169C118.261 361.378 116.149 361.87 114.413 361.674C112.474 361.454 110.553 360.47 108.785 359.679C105.989 358.427 103.175 357.128 100.272 356.141C96.0569 354.707 91.6437 354.013 87.2924 353.121C86.1264 350.78 85.9631 347.925 85.6722 345.363L87.6661 345.145Z"/>
	<path fill="#F2BF52" transform="scale(0.490885 0.450617)" d="M85.6722 345.363L85.5683 141.53L190.937 111.662C190.428 119.531 191.036 127.748 190.994 135.669L190.713 190.922L190.704 219.334C190.658 226.062 190.052 232.997 191.083 239.665C185.829 241.342 180.451 243.528 174.982 244.34L174.914 261.072L191.02 257.027C191.605 259.339 191.284 262.168 191.276 264.566L191.284 277.403L191.477 307.178L191.635 334.073L87.6107 344.606L87.6661 345.145L85.6722 345.363Z"/>
</svg>
